<svg width="351" height="280" viewBox="0 0 351 280" fill="none" xmlns="http://www.w3.org/2000/svg">
<rect width="351" height="280" fill="#F2E7D3"/>
<path d="M111.81 118V100.545H118.696C120.02 100.545 121.148 100.798 122.08 101.304C123.012 101.804 123.722 102.5 124.211 103.392C124.705 104.278 124.952 105.301 124.952 106.46C124.952 107.619 124.702 108.642 124.202 109.528C123.702 110.415 122.978 111.105 122.029 111.599C121.086 112.094 119.944 112.341 118.603 112.341H114.213V109.384H118.006C118.716 109.384 119.301 109.261 119.762 109.017C120.228 108.767 120.574 108.423 120.801 107.986C121.034 107.543 121.151 107.034 121.151 106.46C121.151 105.881 121.034 105.375 120.801 104.943C120.574 104.506 120.228 104.168 119.762 103.929C119.296 103.685 118.705 103.562 117.989 103.562H115.5V118H111.81ZM130.662 118.247C129.827 118.247 129.083 118.102 128.429 117.812C127.776 117.517 127.259 117.082 126.878 116.509C126.503 115.929 126.316 115.207 126.316 114.344C126.316 113.616 126.449 113.006 126.716 112.511C126.983 112.017 127.347 111.619 127.807 111.318C128.267 111.017 128.79 110.79 129.375 110.636C129.966 110.483 130.586 110.375 131.233 110.312C131.995 110.233 132.608 110.159 133.074 110.091C133.54 110.017 133.878 109.909 134.088 109.767C134.299 109.625 134.404 109.415 134.404 109.136V109.085C134.404 108.545 134.233 108.128 133.892 107.832C133.557 107.537 133.08 107.389 132.461 107.389C131.807 107.389 131.287 107.534 130.901 107.824C130.515 108.108 130.259 108.466 130.134 108.898L126.776 108.625C126.946 107.83 127.282 107.142 127.782 106.562C128.282 105.977 128.926 105.528 129.716 105.216C130.512 104.898 131.432 104.739 132.478 104.739C133.205 104.739 133.901 104.824 134.566 104.994C135.236 105.165 135.83 105.429 136.347 105.787C136.87 106.145 137.282 106.605 137.583 107.168C137.884 107.724 138.034 108.392 138.034 109.17V118H134.591V116.185H134.489C134.279 116.594 133.998 116.955 133.645 117.267C133.293 117.574 132.87 117.815 132.375 117.991C131.881 118.162 131.31 118.247 130.662 118.247ZM131.702 115.741C132.236 115.741 132.708 115.636 133.117 115.426C133.526 115.21 133.847 114.92 134.08 114.557C134.313 114.193 134.429 113.781 134.429 113.321V111.932C134.316 112.006 134.159 112.074 133.961 112.136C133.767 112.193 133.549 112.247 133.304 112.298C133.06 112.344 132.816 112.386 132.571 112.426C132.327 112.46 132.105 112.491 131.907 112.52C131.48 112.582 131.108 112.682 130.79 112.818C130.472 112.955 130.225 113.139 130.049 113.372C129.873 113.599 129.784 113.884 129.784 114.224C129.784 114.719 129.963 115.097 130.321 115.358C130.685 115.614 131.145 115.741 131.702 115.741ZM147.814 104.909V107.636H139.931V104.909H147.814ZM141.721 101.773H145.351V113.977C145.351 114.312 145.402 114.574 145.505 114.761C145.607 114.943 145.749 115.071 145.931 115.145C146.118 115.219 146.334 115.256 146.578 115.256C146.749 115.256 146.919 115.241 147.09 115.213C147.26 115.179 147.391 115.153 147.482 115.136L148.053 117.838C147.871 117.895 147.615 117.96 147.286 118.034C146.956 118.114 146.556 118.162 146.084 118.179C145.209 118.213 144.442 118.097 143.783 117.83C143.13 117.562 142.621 117.148 142.257 116.585C141.894 116.023 141.715 115.312 141.721 114.455V101.773ZM155.953 118.256C154.613 118.256 153.459 117.972 152.493 117.403C151.533 116.83 150.794 116.034 150.277 115.017C149.766 114 149.51 112.83 149.51 111.506C149.51 110.165 149.769 108.989 150.286 107.977C150.809 106.96 151.55 106.168 152.51 105.599C153.471 105.026 154.613 104.739 155.936 104.739C157.078 104.739 158.078 104.946 158.936 105.361C159.794 105.776 160.473 106.358 160.973 107.108C161.473 107.858 161.749 108.739 161.8 109.75H158.374C158.277 109.097 158.022 108.571 157.607 108.173C157.198 107.77 156.661 107.568 155.996 107.568C155.434 107.568 154.942 107.722 154.522 108.028C154.107 108.33 153.783 108.77 153.55 109.349C153.317 109.929 153.201 110.631 153.201 111.455C153.201 112.29 153.314 113 153.542 113.585C153.775 114.17 154.101 114.616 154.522 114.923C154.942 115.23 155.434 115.384 155.996 115.384C156.411 115.384 156.783 115.298 157.113 115.128C157.448 114.957 157.723 114.71 157.939 114.386C158.161 114.057 158.306 113.662 158.374 113.202H161.8C161.743 114.202 161.471 115.082 160.982 115.844C160.499 116.599 159.831 117.19 158.979 117.616C158.127 118.043 157.118 118.256 155.953 118.256ZM167.755 110.432V118H164.125V100.545H167.653V107.219H167.806C168.102 106.446 168.579 105.841 169.238 105.403C169.897 104.96 170.724 104.739 171.718 104.739C172.627 104.739 173.42 104.938 174.096 105.335C174.778 105.727 175.306 106.293 175.681 107.031C176.062 107.764 176.25 108.642 176.244 109.665V118H172.613V110.312C172.619 109.506 172.414 108.878 172 108.429C171.591 107.98 171.017 107.756 170.278 107.756C169.784 107.756 169.346 107.861 168.966 108.071C168.591 108.281 168.295 108.588 168.079 108.991C167.869 109.389 167.761 109.869 167.755 110.432ZM185.067 118.256C183.721 118.256 182.561 117.983 181.59 117.438C180.624 116.886 179.88 116.108 179.357 115.102C178.834 114.091 178.573 112.895 178.573 111.514C178.573 110.168 178.834 108.986 179.357 107.969C179.88 106.952 180.615 106.159 181.564 105.591C182.519 105.023 183.638 104.739 184.922 104.739C185.786 104.739 186.59 104.878 187.334 105.156C188.084 105.429 188.738 105.841 189.294 106.392C189.857 106.943 190.294 107.636 190.607 108.472C190.919 109.301 191.076 110.273 191.076 111.386V112.384H180.022V110.134H187.658C187.658 109.611 187.544 109.148 187.317 108.744C187.09 108.341 186.775 108.026 186.371 107.798C185.973 107.565 185.51 107.449 184.982 107.449C184.431 107.449 183.942 107.577 183.516 107.832C183.096 108.082 182.766 108.42 182.527 108.847C182.289 109.267 182.167 109.736 182.161 110.253V112.392C182.161 113.04 182.28 113.599 182.519 114.071C182.763 114.543 183.107 114.906 183.55 115.162C183.993 115.418 184.519 115.545 185.127 115.545C185.53 115.545 185.9 115.489 186.235 115.375C186.57 115.261 186.857 115.091 187.096 114.864C187.334 114.636 187.516 114.358 187.641 114.028L190.999 114.25C190.828 115.057 190.479 115.761 189.951 116.364C189.428 116.96 188.752 117.426 187.922 117.761C187.098 118.091 186.147 118.256 185.067 118.256ZM198.269 118.213C197.275 118.213 196.374 117.957 195.567 117.446C194.766 116.929 194.13 116.17 193.658 115.17C193.192 114.165 192.959 112.932 192.959 111.472C192.959 109.972 193.201 108.724 193.684 107.73C194.167 106.73 194.809 105.983 195.61 105.489C196.417 104.989 197.3 104.739 198.26 104.739C198.993 104.739 199.604 104.864 200.093 105.114C200.587 105.358 200.985 105.665 201.286 106.034C201.593 106.398 201.826 106.756 201.985 107.108H202.096V100.545H205.718V118H202.138V115.903H201.985C201.814 116.267 201.573 116.628 201.26 116.986C200.953 117.338 200.553 117.631 200.059 117.864C199.57 118.097 198.973 118.213 198.269 118.213ZM199.419 115.324C200.005 115.324 200.499 115.165 200.902 114.847C201.311 114.523 201.624 114.071 201.84 113.491C202.061 112.912 202.172 112.233 202.172 111.455C202.172 110.676 202.064 110 201.848 109.426C201.632 108.852 201.32 108.409 200.911 108.097C200.502 107.784 200.005 107.628 199.419 107.628C198.823 107.628 198.32 107.79 197.911 108.114C197.502 108.437 197.192 108.886 196.982 109.46C196.772 110.034 196.667 110.699 196.667 111.455C196.667 112.216 196.772 112.889 196.982 113.474C197.198 114.054 197.507 114.509 197.911 114.838C198.32 115.162 198.823 115.324 199.419 115.324ZM214.326 118V100.545H217.956V107.108H218.067C218.226 106.756 218.456 106.398 218.757 106.034C219.064 105.665 219.462 105.358 219.951 105.114C220.445 104.864 221.059 104.739 221.792 104.739C222.746 104.739 223.627 104.989 224.434 105.489C225.24 105.983 225.885 106.73 226.368 107.73C226.851 108.724 227.093 109.972 227.093 111.472C227.093 112.932 226.857 114.165 226.385 115.17C225.919 116.17 225.283 116.929 224.476 117.446C223.675 117.957 222.777 118.213 221.783 118.213C221.078 118.213 220.479 118.097 219.985 117.864C219.496 117.631 219.096 117.338 218.783 116.986C218.471 116.628 218.232 116.267 218.067 115.903H217.905V118H214.326ZM217.88 111.455C217.88 112.233 217.988 112.912 218.203 113.491C218.419 114.071 218.732 114.523 219.141 114.847C219.55 115.165 220.047 115.324 220.632 115.324C221.223 115.324 221.723 115.162 222.132 114.838C222.542 114.509 222.851 114.054 223.061 113.474C223.277 112.889 223.385 112.216 223.385 111.455C223.385 110.699 223.28 110.034 223.07 109.46C222.86 108.886 222.55 108.437 222.141 108.114C221.732 107.79 221.229 107.628 220.632 107.628C220.042 107.628 219.542 107.784 219.132 108.097C218.729 108.409 218.419 108.852 218.203 109.426C217.988 110 217.88 110.676 217.88 111.455ZM231.335 122.909C230.875 122.909 230.443 122.872 230.039 122.798C229.642 122.73 229.312 122.642 229.051 122.534L229.869 119.824C230.295 119.955 230.679 120.026 231.02 120.037C231.366 120.048 231.664 119.969 231.914 119.798C232.17 119.628 232.377 119.338 232.537 118.929L232.75 118.375L228.054 104.909H231.872L234.582 114.523H234.718L237.454 104.909H241.298L236.21 119.415C235.966 120.119 235.633 120.733 235.213 121.256C234.798 121.784 234.272 122.19 233.636 122.474C233 122.764 232.233 122.909 231.335 122.909ZM47.392 134.565C47.3239 133.878 47.0313 133.344 46.5142 132.963C45.9972 132.582 45.2955 132.392 44.4091 132.392C43.8068 132.392 43.2983 132.477 42.8835 132.648C42.4688 132.812 42.1506 133.043 41.929 133.338C41.7131 133.634 41.6051 133.969 41.6051 134.344C41.5938 134.656 41.6591 134.929 41.8011 135.162C41.9489 135.395 42.1506 135.597 42.4062 135.767C42.6619 135.932 42.9574 136.077 43.2926 136.202C43.6278 136.321 43.9858 136.423 44.3665 136.509L45.9347 136.884C46.696 137.054 47.3949 137.281 48.0312 137.565C48.6676 137.849 49.2188 138.199 49.6847 138.614C50.1506 139.028 50.5114 139.517 50.767 140.08C51.0284 140.642 51.1619 141.287 51.1676 142.014C51.1619 143.082 50.8892 144.009 50.3494 144.793C49.8153 145.571 49.0426 146.176 48.0312 146.608C47.0256 147.034 45.8125 147.247 44.392 147.247C42.983 147.247 41.7557 147.031 40.7102 146.599C39.6705 146.168 38.858 145.528 38.2727 144.682C37.6932 143.83 37.3892 142.776 37.3608 141.52H40.9318C40.9716 142.105 41.1392 142.594 41.4347 142.986C41.7358 143.372 42.1364 143.665 42.6364 143.864C43.142 144.057 43.7131 144.153 44.3494 144.153C44.9744 144.153 45.517 144.062 45.9773 143.881C46.4432 143.699 46.804 143.446 47.0597 143.122C47.3153 142.798 47.4432 142.426 47.4432 142.006C47.4432 141.614 47.3267 141.284 47.0938 141.017C46.8665 140.75 46.5313 140.523 46.0881 140.335C45.6506 140.148 45.1136 139.977 44.4773 139.824L42.5767 139.347C41.1051 138.989 39.9432 138.429 39.0909 137.668C38.2386 136.906 37.8153 135.881 37.821 134.591C37.8153 133.534 38.0966 132.611 38.6648 131.821C39.2386 131.031 40.0256 130.415 41.0256 129.972C42.0256 129.528 43.1619 129.307 44.4347 129.307C45.7301 129.307 46.8608 129.528 47.8267 129.972C48.7983 130.415 49.554 131.031 50.0938 131.821C50.6335 132.611 50.9119 133.526 50.929 134.565H47.392ZM61.9766 141.426V133.909H65.6072V147H62.1214V144.622H61.9851C61.6896 145.389 61.1982 146.006 60.5107 146.472C59.8288 146.937 58.9964 147.17 58.0135 147.17C57.1385 147.17 56.3686 146.972 55.7038 146.574C55.0391 146.176 54.5192 145.611 54.1442 144.878C53.7749 144.145 53.5874 143.267 53.5817 142.244V133.909H57.2124V141.597C57.218 142.369 57.4254 142.98 57.8345 143.429C58.2436 143.878 58.7919 144.102 59.4794 144.102C59.9169 144.102 60.326 144.003 60.7067 143.804C61.0874 143.599 61.3942 143.298 61.6271 142.901C61.8658 142.503 61.9822 142.011 61.9766 141.426ZM68.5795 147V129.545H72.2102V136.108H72.321C72.4801 135.756 72.7102 135.398 73.0114 135.034C73.3182 134.665 73.7159 134.358 74.2045 134.114C74.6989 133.864 75.3125 133.739 76.0455 133.739C77 133.739 77.8807 133.989 78.6875 134.489C79.4943 134.983 80.1392 135.73 80.6222 136.73C81.1051 137.724 81.3466 138.972 81.3466 140.472C81.3466 141.932 81.1108 143.165 80.6392 144.17C80.1733 145.17 79.5369 145.929 78.7301 146.446C77.929 146.957 77.0313 147.213 76.0369 147.213C75.3324 147.213 74.733 147.097 74.2386 146.864C73.75 146.631 73.3494 146.338 73.0369 145.986C72.7244 145.628 72.4858 145.267 72.321 144.903H72.1591V147H68.5795ZM72.1335 140.455C72.1335 141.233 72.2415 141.912 72.4574 142.491C72.6733 143.071 72.9858 143.523 73.3949 143.847C73.804 144.165 74.3011 144.324 74.8864 144.324C75.4773 144.324 75.9773 144.162 76.3864 143.838C76.7955 143.509 77.1051 143.054 77.3153 142.474C77.5313 141.889 77.6392 141.216 77.6392 140.455C77.6392 139.699 77.5341 139.034 77.3239 138.46C77.1136 137.886 76.804 137.437 76.3949 137.114C75.9858 136.79 75.483 136.628 74.8864 136.628C74.2955 136.628 73.7955 136.784 73.3864 137.097C72.983 137.409 72.6733 137.852 72.4574 138.426C72.2415 139 72.1335 139.676 72.1335 140.455ZM86.0234 147L82.4609 133.909H86.1342L88.1626 142.705H88.282L90.3956 133.909H94.0007L96.1484 142.653H96.2592L98.2536 133.909H101.918L98.3643 147H94.5206L92.2706 138.767H92.1087L89.8587 147H86.0234ZM107.588 147.247C106.753 147.247 106.009 147.102 105.355 146.812C104.702 146.517 104.185 146.082 103.804 145.509C103.429 144.929 103.241 144.207 103.241 143.344C103.241 142.616 103.375 142.006 103.642 141.511C103.909 141.017 104.273 140.619 104.733 140.318C105.193 140.017 105.716 139.79 106.301 139.636C106.892 139.483 107.511 139.375 108.159 139.312C108.92 139.233 109.534 139.159 110 139.091C110.466 139.017 110.804 138.909 111.014 138.767C111.224 138.625 111.33 138.415 111.33 138.136V138.085C111.33 137.545 111.159 137.128 110.818 136.832C110.483 136.537 110.006 136.389 109.386 136.389C108.733 136.389 108.213 136.534 107.827 136.824C107.44 137.108 107.185 137.466 107.06 137.898L103.702 137.625C103.872 136.83 104.207 136.142 104.707 135.562C105.207 134.977 105.852 134.528 106.642 134.216C107.438 133.898 108.358 133.739 109.403 133.739C110.131 133.739 110.827 133.824 111.491 133.994C112.162 134.165 112.756 134.429 113.273 134.787C113.795 135.145 114.207 135.605 114.509 136.168C114.81 136.724 114.96 137.392 114.96 138.17V147H111.517V145.185H111.415C111.205 145.594 110.923 145.955 110.571 146.267C110.219 146.574 109.795 146.815 109.301 146.991C108.807 147.162 108.236 147.247 107.588 147.247ZM108.628 144.741C109.162 144.741 109.634 144.636 110.043 144.426C110.452 144.21 110.773 143.92 111.006 143.557C111.239 143.193 111.355 142.781 111.355 142.321V140.932C111.241 141.006 111.085 141.074 110.886 141.136C110.693 141.193 110.474 141.247 110.23 141.298C109.986 141.344 109.741 141.386 109.497 141.426C109.253 141.46 109.031 141.491 108.832 141.52C108.406 141.582 108.034 141.682 107.716 141.818C107.398 141.955 107.151 142.139 106.974 142.372C106.798 142.599 106.71 142.884 106.71 143.224C106.71 143.719 106.889 144.097 107.247 144.358C107.611 144.614 108.071 144.741 108.628 144.741ZM119.55 151.909C119.089 151.909 118.658 151.872 118.254 151.798C117.857 151.73 117.527 151.642 117.266 151.534L118.084 148.824C118.51 148.955 118.893 149.026 119.234 149.037C119.581 149.048 119.879 148.969 120.129 148.798C120.385 148.628 120.592 148.338 120.751 147.929L120.964 147.375L116.268 133.909H120.087L122.797 143.523H122.933L125.669 133.909H129.513L124.425 148.415C124.18 149.119 123.848 149.733 123.428 150.256C123.013 150.784 122.487 151.19 121.851 151.474C121.214 151.764 120.447 151.909 119.55 151.909ZM131.439 147V129.545H138.428C139.712 129.545 140.783 129.736 141.641 130.116C142.499 130.497 143.143 131.026 143.575 131.702C144.007 132.372 144.223 133.145 144.223 134.02C144.223 134.702 144.087 135.301 143.814 135.818C143.541 136.33 143.166 136.75 142.689 137.08C142.217 137.403 141.678 137.634 141.07 137.77V137.94C141.734 137.969 142.357 138.156 142.936 138.503C143.521 138.849 143.996 139.335 144.359 139.96C144.723 140.58 144.905 141.318 144.905 142.176C144.905 143.102 144.675 143.929 144.214 144.656C143.76 145.378 143.087 145.949 142.195 146.369C141.303 146.79 140.203 147 138.896 147H131.439ZM135.129 143.983H138.138C139.166 143.983 139.916 143.787 140.388 143.395C140.859 142.997 141.095 142.469 141.095 141.81C141.095 141.327 140.979 140.901 140.746 140.531C140.513 140.162 140.18 139.872 139.749 139.662C139.322 139.452 138.814 139.347 138.223 139.347H135.129V143.983ZM135.129 136.849H137.865C138.371 136.849 138.82 136.761 139.212 136.585C139.609 136.403 139.922 136.148 140.149 135.818C140.382 135.489 140.499 135.094 140.499 134.634C140.499 134.003 140.274 133.494 139.825 133.108C139.382 132.722 138.751 132.528 137.933 132.528H135.129V136.849ZM155.633 141.426V133.909H159.263V147H155.778V144.622H155.641C155.346 145.389 154.854 146.006 154.167 146.472C153.485 146.937 152.653 147.17 151.67 147.17C150.795 147.17 150.025 146.972 149.36 146.574C148.695 146.176 148.175 145.611 147.8 144.878C147.431 144.145 147.244 143.267 147.238 142.244V133.909H150.869V141.597C150.874 142.369 151.082 142.98 151.491 143.429C151.9 143.878 152.448 144.102 153.136 144.102C153.573 144.102 153.982 144.003 154.363 143.804C154.744 143.599 155.05 143.298 155.283 142.901C155.522 142.503 155.638 142.011 155.633 141.426ZM162.168 147V133.909H165.798V147H162.168ZM163.991 132.222C163.452 132.222 162.989 132.043 162.602 131.685C162.222 131.321 162.031 130.886 162.031 130.381C162.031 129.881 162.222 129.452 162.602 129.094C162.989 128.73 163.452 128.548 163.991 128.548C164.531 128.548 164.991 128.73 165.372 129.094C165.759 129.452 165.952 129.881 165.952 130.381C165.952 130.886 165.759 131.321 165.372 131.685C164.991 132.043 164.531 132.222 163.991 132.222ZM172.337 129.545V147H168.707V129.545H172.337ZM180.07 147.213C179.075 147.213 178.175 146.957 177.368 146.446C176.567 145.929 175.93 145.17 175.459 144.17C174.993 143.165 174.76 141.932 174.76 140.472C174.76 138.972 175.001 137.724 175.484 136.73C175.967 135.73 176.609 134.983 177.411 134.489C178.217 133.989 179.101 133.739 180.061 133.739C180.794 133.739 181.405 133.864 181.893 134.114C182.388 134.358 182.786 134.665 183.087 135.034C183.393 135.398 183.626 135.756 183.786 136.108H183.896V129.545H187.518V147H183.939V144.903H183.786C183.615 145.267 183.374 145.628 183.061 145.986C182.754 146.338 182.354 146.631 181.859 146.864C181.371 147.097 180.774 147.213 180.07 147.213ZM181.22 144.324C181.805 144.324 182.3 144.165 182.703 143.847C183.112 143.523 183.425 143.071 183.641 142.491C183.862 141.912 183.973 141.233 183.973 140.455C183.973 139.676 183.865 139 183.649 138.426C183.433 137.852 183.121 137.409 182.712 137.097C182.303 136.784 181.805 136.628 181.22 136.628C180.624 136.628 180.121 136.79 179.712 137.114C179.303 137.437 178.993 137.886 178.783 138.46C178.572 139.034 178.467 139.699 178.467 140.455C178.467 141.216 178.572 141.889 178.783 142.474C178.999 143.054 179.308 143.509 179.712 143.838C180.121 144.162 180.624 144.324 181.22 144.324ZM196.469 147.256C195.123 147.256 193.964 146.983 192.992 146.438C192.026 145.886 191.282 145.108 190.759 144.102C190.237 143.091 189.975 141.895 189.975 140.514C189.975 139.168 190.237 137.986 190.759 136.969C191.282 135.952 192.018 135.159 192.967 134.591C193.921 134.023 195.04 133.739 196.325 133.739C197.188 133.739 197.992 133.878 198.737 134.156C199.487 134.429 200.14 134.841 200.697 135.392C201.259 135.943 201.697 136.636 202.009 137.472C202.322 138.301 202.478 139.273 202.478 140.386V141.384H191.424V139.134H199.06C199.06 138.611 198.947 138.148 198.719 137.744C198.492 137.341 198.177 137.026 197.773 136.798C197.376 136.565 196.913 136.449 196.384 136.449C195.833 136.449 195.344 136.577 194.918 136.832C194.498 137.082 194.168 137.42 193.93 137.847C193.691 138.267 193.569 138.736 193.563 139.253V141.392C193.563 142.04 193.683 142.599 193.921 143.071C194.165 143.543 194.509 143.906 194.952 144.162C195.396 144.418 195.921 144.545 196.529 144.545C196.933 144.545 197.302 144.489 197.637 144.375C197.972 144.261 198.259 144.091 198.498 143.864C198.737 143.636 198.918 143.358 199.043 143.028L202.401 143.25C202.231 144.057 201.881 144.761 201.353 145.364C200.83 145.96 200.154 146.426 199.325 146.761C198.501 147.091 197.549 147.256 196.469 147.256ZM204.847 147V133.909H208.367V136.193H208.504C208.742 135.381 209.143 134.767 209.705 134.352C210.268 133.932 210.915 133.722 211.648 133.722C211.83 133.722 212.026 133.733 212.237 133.756C212.447 133.778 212.631 133.81 212.79 133.849V137.071C212.62 137.02 212.384 136.974 212.083 136.935C211.782 136.895 211.506 136.875 211.256 136.875C210.722 136.875 210.245 136.991 209.825 137.224C209.41 137.452 209.08 137.77 208.836 138.179C208.597 138.588 208.478 139.06 208.478 139.594V147H204.847ZM222.425 138.392V141.273H214.465V138.392H222.425ZM225.587 147V129.545H232.474C233.798 129.545 234.925 129.798 235.857 130.304C236.789 130.804 237.499 131.5 237.988 132.392C238.482 133.278 238.729 134.301 238.729 135.46C238.729 136.619 238.479 137.642 237.979 138.528C237.479 139.415 236.755 140.105 235.806 140.599C234.863 141.094 233.721 141.341 232.38 141.341H227.991V138.384H231.783C232.494 138.384 233.079 138.261 233.539 138.017C234.005 137.767 234.352 137.423 234.579 136.986C234.812 136.543 234.928 136.034 234.928 135.46C234.928 134.881 234.812 134.375 234.579 133.943C234.352 133.506 234.005 133.168 233.539 132.929C233.073 132.685 232.482 132.562 231.766 132.562H229.278V147H225.587ZM244.44 147.247C243.604 147.247 242.86 147.102 242.207 146.812C241.553 146.517 241.036 146.082 240.656 145.509C240.281 144.929 240.093 144.207 240.093 143.344C240.093 142.616 240.227 142.006 240.494 141.511C240.761 141.017 241.124 140.619 241.585 140.318C242.045 140.017 242.567 139.79 243.153 139.636C243.744 139.483 244.363 139.375 245.011 139.312C245.772 139.233 246.386 139.159 246.852 139.091C247.317 139.017 247.656 138.909 247.866 138.767C248.076 138.625 248.181 138.415 248.181 138.136V138.085C248.181 137.545 248.011 137.128 247.67 136.832C247.335 136.537 246.857 136.389 246.238 136.389C245.585 136.389 245.065 136.534 244.678 136.824C244.292 137.108 244.036 137.466 243.911 137.898L240.553 137.625C240.724 136.83 241.059 136.142 241.559 135.562C242.059 134.977 242.704 134.528 243.494 134.216C244.289 133.898 245.21 133.739 246.255 133.739C246.982 133.739 247.678 133.824 248.343 133.994C249.013 134.165 249.607 134.429 250.124 134.787C250.647 135.145 251.059 135.605 251.36 136.168C251.661 136.724 251.812 137.392 251.812 138.17V147H248.369V145.185H248.266C248.056 145.594 247.775 145.955 247.423 146.267C247.07 146.574 246.647 146.815 246.153 146.991C245.658 147.162 245.087 147.247 244.44 147.247ZM245.479 144.741C246.013 144.741 246.485 144.636 246.894 144.426C247.303 144.21 247.624 143.92 247.857 143.557C248.09 143.193 248.207 142.781 248.207 142.321V140.932C248.093 141.006 247.937 141.074 247.738 141.136C247.545 141.193 247.326 141.247 247.082 141.298C246.837 141.344 246.593 141.386 246.349 141.426C246.104 141.46 245.883 141.491 245.684 141.52C245.258 141.582 244.886 141.682 244.567 141.818C244.249 141.955 244.002 142.139 243.826 142.372C243.65 142.599 243.562 142.884 243.562 143.224C243.562 143.719 243.741 144.097 244.099 144.358C244.462 144.614 244.923 144.741 245.479 144.741ZM261.592 133.909V136.636H253.708V133.909H261.592ZM255.498 130.773H259.129V142.977C259.129 143.312 259.18 143.574 259.282 143.761C259.384 143.943 259.526 144.071 259.708 144.145C259.896 144.219 260.112 144.256 260.356 144.256C260.526 144.256 260.697 144.241 260.867 144.213C261.038 144.179 261.168 144.153 261.259 144.136L261.83 146.838C261.648 146.895 261.393 146.96 261.063 147.034C260.734 147.114 260.333 147.162 259.862 147.179C258.987 147.213 258.219 147.097 257.56 146.83C256.907 146.562 256.398 146.148 256.035 145.585C255.671 145.023 255.492 144.312 255.498 143.455V130.773ZM269.731 147.256C268.39 147.256 267.237 146.972 266.271 146.403C265.31 145.83 264.572 145.034 264.055 144.017C263.543 143 263.288 141.83 263.288 140.506C263.288 139.165 263.546 137.989 264.063 136.977C264.586 135.96 265.327 135.168 266.288 134.599C267.248 134.026 268.39 133.739 269.714 133.739C270.856 133.739 271.856 133.946 272.714 134.361C273.572 134.776 274.251 135.358 274.751 136.108C275.251 136.858 275.526 137.739 275.577 138.75H272.151C272.055 138.097 271.799 137.571 271.384 137.173C270.975 136.77 270.438 136.568 269.773 136.568C269.211 136.568 268.719 136.722 268.299 137.028C267.884 137.33 267.56 137.77 267.327 138.349C267.094 138.929 266.978 139.631 266.978 140.455C266.978 141.29 267.092 142 267.319 142.585C267.552 143.17 267.879 143.616 268.299 143.923C268.719 144.23 269.211 144.384 269.773 144.384C270.188 144.384 270.56 144.298 270.89 144.128C271.225 143.957 271.501 143.71 271.717 143.386C271.938 143.057 272.083 142.662 272.151 142.202H275.577C275.521 143.202 275.248 144.082 274.759 144.844C274.276 145.599 273.609 146.19 272.756 146.616C271.904 147.043 270.896 147.256 269.731 147.256ZM281.533 139.432V147H277.902V129.545H281.43V136.219H281.584C281.879 135.446 282.357 134.841 283.016 134.403C283.675 133.96 284.501 133.739 285.496 133.739C286.405 133.739 287.197 133.938 287.874 134.335C288.555 134.727 289.084 135.293 289.459 136.031C289.839 136.764 290.027 137.642 290.021 138.665V147H286.391V139.312C286.396 138.506 286.192 137.878 285.777 137.429C285.368 136.98 284.794 136.756 284.055 136.756C283.561 136.756 283.124 136.861 282.743 137.071C282.368 137.281 282.072 137.588 281.857 137.991C281.646 138.389 281.538 138.869 281.533 139.432ZM298.844 147.256C297.498 147.256 296.339 146.983 295.367 146.438C294.401 145.886 293.657 145.108 293.134 144.102C292.612 143.091 292.35 141.895 292.35 140.514C292.35 139.168 292.612 137.986 293.134 136.969C293.657 135.952 294.393 135.159 295.342 134.591C296.296 134.023 297.415 133.739 298.7 133.739C299.563 133.739 300.367 133.878 301.112 134.156C301.862 134.429 302.515 134.841 303.072 135.392C303.634 135.943 304.072 136.636 304.384 137.472C304.697 138.301 304.853 139.273 304.853 140.386V141.384H293.799V139.134H301.435C301.435 138.611 301.322 138.148 301.094 137.744C300.867 137.341 300.552 137.026 300.148 136.798C299.751 136.565 299.288 136.449 298.759 136.449C298.208 136.449 297.719 136.577 297.293 136.832C296.873 137.082 296.543 137.42 296.305 137.847C296.066 138.267 295.944 138.736 295.938 139.253V141.392C295.938 142.04 296.058 142.599 296.296 143.071C296.54 143.543 296.884 143.906 297.327 144.162C297.771 144.418 298.296 144.545 298.904 144.545C299.308 144.545 299.677 144.489 300.012 144.375C300.347 144.261 300.634 144.091 300.873 143.864C301.112 143.636 301.293 143.358 301.418 143.028L304.776 143.25C304.606 144.057 304.256 144.761 303.728 145.364C303.205 145.96 302.529 146.426 301.7 146.761C300.876 147.091 299.924 147.256 298.844 147.256ZM307.222 147V133.909H310.742V136.193H310.879C311.117 135.381 311.518 134.767 312.08 134.352C312.643 133.932 313.29 133.722 314.023 133.722C314.205 133.722 314.401 133.733 314.612 133.756C314.822 133.778 315.006 133.81 315.165 133.849V137.071C314.995 137.02 314.759 136.974 314.458 136.935C314.157 136.895 313.881 136.875 313.631 136.875C313.097 136.875 312.62 136.991 312.2 137.224C311.785 137.452 311.455 137.77 311.211 138.179C310.972 138.588 310.853 139.06 310.853 139.594V147H307.222Z" fill="black"/>
<path d="M84.6958 173.693V180H81.6703V165.455H84.6106V171.016H84.7385C84.9847 170.372 85.3824 169.867 85.9316 169.503C86.4809 169.134 87.1698 168.949 87.9984 168.949C88.756 168.949 89.4165 169.115 89.9799 169.446C90.5481 169.773 90.9885 170.244 91.301 170.859C91.6182 171.47 91.7744 172.202 91.7697 173.054V180H88.7441V173.594C88.7489 172.921 88.5784 172.398 88.2328 172.024C87.8919 171.65 87.4136 171.463 86.7981 171.463C86.3862 171.463 86.0216 171.551 85.7044 171.726C85.3919 171.901 85.1457 172.157 84.9657 172.493C84.7905 172.824 84.7006 173.224 84.6958 173.693ZM99.9533 169.091V171.364H93.3837V169.091H99.9533ZM94.8752 166.477H97.9007V176.648C97.9007 176.927 97.9434 177.145 98.0286 177.301C98.1138 177.453 98.2322 177.559 98.3837 177.621C98.54 177.682 98.7199 177.713 98.9235 177.713C99.0655 177.713 99.2076 177.701 99.3496 177.678C99.4917 177.649 99.6006 177.628 99.6763 177.614L100.152 179.865C100.001 179.912 99.7876 179.967 99.513 180.028C99.2383 180.095 98.9045 180.135 98.5115 180.149C97.7824 180.178 97.1432 180.08 96.5939 179.858C96.0494 179.635 95.6257 179.29 95.3226 178.821C95.0196 178.352 94.8704 177.76 94.8752 177.045V166.477ZM107.727 169.091V171.364H101.157V169.091H107.727ZM102.649 166.477H105.674V176.648C105.674 176.927 105.717 177.145 105.802 177.301C105.887 177.453 106.006 177.559 106.157 177.621C106.313 177.682 106.493 177.713 106.697 177.713C106.839 177.713 106.981 177.701 107.123 177.678C107.265 177.649 107.374 177.628 107.45 177.614L107.926 179.865C107.774 179.912 107.561 179.967 107.286 180.028C107.012 180.095 106.678 180.135 106.285 180.149C105.556 180.178 104.917 180.08 104.367 179.858C103.823 179.635 103.399 179.29 103.096 178.821C102.793 178.352 102.644 177.76 102.649 177.045V166.477ZM109.698 184.091V169.091H112.681V170.923H112.816C112.948 170.63 113.14 170.331 113.391 170.028C113.646 169.721 113.978 169.465 114.385 169.261C114.797 169.053 115.308 168.949 115.919 168.949C116.715 168.949 117.449 169.157 118.121 169.574C118.793 169.986 119.331 170.608 119.733 171.442C120.136 172.27 120.337 173.31 120.337 174.56C120.337 175.777 120.14 176.804 119.747 177.642C119.359 178.475 118.829 179.107 118.156 179.538C117.489 179.964 116.741 180.178 115.912 180.178C115.325 180.178 114.825 180.08 114.414 179.886C114.006 179.692 113.673 179.448 113.412 179.155C113.152 178.857 112.953 178.556 112.816 178.253H112.723V184.091H109.698ZM112.659 174.545C112.659 175.194 112.749 175.76 112.929 176.243C113.109 176.726 113.369 177.102 113.71 177.372C114.051 177.637 114.466 177.77 114.953 177.77C115.446 177.77 115.862 177.635 116.203 177.365C116.544 177.09 116.802 176.712 116.977 176.229C117.157 175.741 117.247 175.18 117.247 174.545C117.247 173.916 117.16 173.362 116.985 172.884C116.809 172.405 116.551 172.031 116.21 171.761C115.869 171.491 115.45 171.357 114.953 171.357C114.461 171.357 114.044 171.487 113.703 171.747C113.367 172.008 113.109 172.377 112.929 172.855C112.749 173.333 112.659 173.897 112.659 174.545ZM131.431 172.202L128.661 172.372C128.613 172.135 128.512 171.922 128.355 171.733C128.199 171.539 127.993 171.385 127.737 171.271C127.486 171.153 127.186 171.094 126.835 171.094C126.367 171.094 125.971 171.193 125.649 171.392C125.327 171.586 125.166 171.847 125.166 172.173C125.166 172.434 125.271 172.654 125.479 172.834C125.687 173.014 126.045 173.158 126.551 173.267L128.526 173.665C129.586 173.883 130.377 174.233 130.898 174.716C131.419 175.199 131.679 175.833 131.679 176.619C131.679 177.334 131.468 177.962 131.047 178.501C130.63 179.041 130.057 179.463 129.328 179.766C128.604 180.064 127.768 180.213 126.821 180.213C125.377 180.213 124.227 179.912 123.369 179.311C122.517 178.705 122.018 177.881 121.871 176.839L124.847 176.683C124.937 177.124 125.155 177.46 125.5 177.692C125.846 177.919 126.289 178.033 126.828 178.033C127.359 178.033 127.785 177.931 128.107 177.727C128.433 177.519 128.599 177.251 128.604 176.925C128.599 176.65 128.483 176.425 128.256 176.25C128.029 176.07 127.678 175.933 127.205 175.838L125.316 175.462C124.25 175.249 123.457 174.879 122.936 174.354C122.42 173.828 122.162 173.158 122.162 172.344C122.162 171.643 122.352 171.039 122.73 170.533C123.114 170.026 123.651 169.635 124.343 169.361C125.039 169.086 125.853 168.949 126.786 168.949C128.164 168.949 129.248 169.24 130.039 169.822C130.834 170.405 131.298 171.198 131.431 172.202ZM135.353 180.185C134.884 180.185 134.482 180.019 134.145 179.688C133.814 179.351 133.648 178.949 133.648 178.48C133.648 178.016 133.814 177.618 134.145 177.287C134.482 176.955 134.884 176.79 135.353 176.79C135.807 176.79 136.205 176.955 136.546 177.287C136.887 177.618 137.057 178.016 137.057 178.48C137.057 178.793 136.977 179.079 136.816 179.339C136.66 179.595 136.454 179.801 136.198 179.957C135.942 180.109 135.661 180.185 135.353 180.185ZM135.353 172.543C134.884 172.543 134.482 172.377 134.145 172.045C133.814 171.714 133.648 171.312 133.648 170.838C133.648 170.374 133.814 169.979 134.145 169.652C134.482 169.321 134.884 169.155 135.353 169.155C135.807 169.155 136.205 169.321 136.546 169.652C136.887 169.979 137.057 170.374 137.057 170.838C137.057 171.155 136.977 171.444 136.816 171.705C136.66 171.96 136.454 172.164 136.198 172.315C135.942 172.467 135.661 172.543 135.353 172.543ZM145.877 164.773L141.189 182.188H138.583L143.27 164.773H145.877ZM153.67 164.773L148.982 182.188H146.376L151.063 164.773H153.67ZM155.127 184.091V169.091H158.11V170.923H158.245C158.378 170.63 158.57 170.331 158.82 170.028C159.076 169.721 159.408 169.465 159.815 169.261C160.227 169.053 160.738 168.949 161.349 168.949C162.144 168.949 162.878 169.157 163.551 169.574C164.223 169.986 164.76 170.608 165.163 171.442C165.565 172.27 165.767 173.31 165.767 174.56C165.767 175.777 165.57 176.804 165.177 177.642C164.789 178.475 164.258 179.107 163.586 179.538C162.919 179.964 162.17 180.178 161.342 180.178C160.755 180.178 160.255 180.08 159.843 179.886C159.436 179.692 159.102 179.448 158.842 179.155C158.581 178.857 158.383 178.556 158.245 178.253H158.153V184.091H155.127ZM158.089 174.545C158.089 175.194 158.179 175.76 158.359 176.243C158.539 176.726 158.799 177.102 159.14 177.372C159.481 177.637 159.895 177.77 160.383 177.77C160.875 177.77 161.292 177.635 161.633 177.365C161.974 177.09 162.232 176.712 162.407 176.229C162.587 175.741 162.677 175.18 162.677 174.545C162.677 173.916 162.589 173.362 162.414 172.884C162.239 172.405 161.981 172.031 161.64 171.761C161.299 171.491 160.88 171.357 160.383 171.357C159.891 171.357 159.474 171.487 159.133 171.747C158.797 172.008 158.539 172.377 158.359 172.855C158.179 173.333 158.089 173.897 158.089 174.545ZM172.698 184.318C171.718 184.318 170.878 184.183 170.177 183.913C169.481 183.648 168.927 183.286 168.515 182.827C168.103 182.367 167.836 181.851 167.713 181.278L170.511 180.902C170.596 181.12 170.731 181.323 170.916 181.513C171.1 181.702 171.344 181.854 171.647 181.967C171.955 182.086 172.329 182.145 172.769 182.145C173.427 182.145 173.97 181.984 174.396 181.662C174.827 181.345 175.042 180.812 175.042 180.064V178.068H174.914C174.782 178.371 174.583 178.658 174.318 178.928C174.052 179.197 173.712 179.418 173.295 179.588C172.878 179.759 172.381 179.844 171.803 179.844C170.984 179.844 170.239 179.654 169.566 179.276C168.899 178.892 168.366 178.307 167.968 177.521C167.575 176.731 167.379 175.732 167.379 174.524C167.379 173.288 167.58 172.256 167.982 171.428C168.385 170.599 168.92 169.979 169.588 169.567C170.26 169.155 170.996 168.949 171.796 168.949C172.407 168.949 172.919 169.053 173.33 169.261C173.742 169.465 174.074 169.721 174.325 170.028C174.58 170.331 174.777 170.63 174.914 170.923H175.028V169.091H178.032V180.107C178.032 181.035 177.805 181.811 177.35 182.436C176.896 183.061 176.266 183.53 175.461 183.842C174.661 184.16 173.74 184.318 172.698 184.318ZM172.762 177.571C173.25 177.571 173.662 177.45 173.998 177.209C174.339 176.963 174.599 176.612 174.779 176.158C174.964 175.698 175.056 175.149 175.056 174.51C175.056 173.871 174.966 173.317 174.786 172.848C174.606 172.375 174.346 172.008 174.005 171.747C173.664 171.487 173.25 171.357 172.762 171.357C172.265 171.357 171.846 171.491 171.505 171.761C171.164 172.027 170.906 172.396 170.731 172.869C170.556 173.343 170.468 173.89 170.468 174.51C170.468 175.14 170.556 175.684 170.731 176.143C170.911 176.598 171.169 176.951 171.505 177.202C171.846 177.448 172.265 177.571 172.762 177.571ZM180.44 180V169.091H183.323V171.016H183.451C183.678 170.376 184.057 169.872 184.588 169.503C185.118 169.134 185.752 168.949 186.491 168.949C187.239 168.949 187.876 169.136 188.401 169.51C188.927 169.879 189.277 170.381 189.453 171.016H189.566C189.789 170.391 190.191 169.891 190.774 169.517C191.361 169.138 192.054 168.949 192.855 168.949C193.873 168.949 194.699 169.273 195.333 169.922C195.972 170.566 196.292 171.48 196.292 172.663V180H193.274V173.26C193.274 172.654 193.113 172.199 192.791 171.896C192.469 171.593 192.066 171.442 191.583 171.442C191.034 171.442 190.606 171.617 190.298 171.967C189.99 172.313 189.836 172.77 189.836 173.338V180H186.903V173.196C186.903 172.661 186.749 172.235 186.441 171.918C186.138 171.6 185.738 171.442 185.241 171.442C184.905 171.442 184.602 171.527 184.332 171.697C184.067 171.863 183.856 172.098 183.7 172.401C183.544 172.699 183.465 173.049 183.465 173.452V180H180.44ZM200.45 180.185C199.982 180.185 199.579 180.019 199.243 179.688C198.912 179.351 198.746 178.949 198.746 178.48C198.746 178.016 198.912 177.618 199.243 177.287C199.579 176.955 199.982 176.79 200.45 176.79C200.905 176.79 201.303 176.955 201.644 177.287C201.985 177.618 202.155 178.016 202.155 178.48C202.155 178.793 202.075 179.079 201.914 179.339C201.757 179.595 201.551 179.801 201.296 179.957C201.04 180.109 200.758 180.185 200.45 180.185ZM213.716 172.202L210.946 172.372C210.898 172.135 210.797 171.922 210.64 171.733C210.484 171.539 210.278 171.385 210.023 171.271C209.772 171.153 209.471 171.094 209.121 171.094C208.652 171.094 208.256 171.193 207.934 171.392C207.613 171.586 207.452 171.847 207.452 172.173C207.452 172.434 207.556 172.654 207.764 172.834C207.972 173.014 208.33 173.158 208.836 173.267L210.811 173.665C211.872 173.883 212.662 174.233 213.183 174.716C213.704 175.199 213.964 175.833 213.964 176.619C213.964 177.334 213.754 177.962 213.332 178.501C212.916 179.041 212.343 179.463 211.613 179.766C210.889 180.064 210.053 180.213 209.106 180.213C207.662 180.213 206.512 179.912 205.655 179.311C204.802 178.705 204.303 177.881 204.156 176.839L207.132 176.683C207.222 177.124 207.44 177.46 207.785 177.692C208.131 177.919 208.574 178.033 209.113 178.033C209.644 178.033 210.07 177.931 210.392 177.727C210.719 177.519 210.884 177.251 210.889 176.925C210.884 176.65 210.768 176.425 210.541 176.25C210.314 176.07 209.963 175.933 209.49 175.838L207.601 175.462C206.535 175.249 205.742 174.879 205.221 174.354C204.705 173.828 204.447 173.158 204.447 172.344C204.447 171.643 204.637 171.039 205.015 170.533C205.399 170.026 205.936 169.635 206.628 169.361C207.324 169.086 208.138 168.949 209.071 168.949C210.449 168.949 211.533 169.24 212.324 169.822C213.119 170.405 213.583 171.198 213.716 172.202ZM218.895 173.693V180H215.869V165.455H218.81V171.016H218.938C219.184 170.372 219.582 169.867 220.131 169.503C220.68 169.134 221.369 168.949 222.198 168.949C222.955 168.949 223.616 169.115 224.179 169.446C224.747 169.773 225.188 170.244 225.5 170.859C225.817 171.47 225.974 172.202 225.969 173.054V180H222.943V173.594C222.948 172.921 222.778 172.398 222.432 172.024C222.091 171.65 221.613 171.463 220.997 171.463C220.585 171.463 220.221 171.551 219.904 171.726C219.591 171.901 219.345 172.157 219.165 172.493C218.99 172.824 218.9 173.224 218.895 173.693ZM234.685 164.773L229.998 182.188H227.391L232.079 164.773H234.685ZM245.22 172.202L242.45 172.372C242.402 172.135 242.301 171.922 242.144 171.733C241.988 171.539 241.782 171.385 241.526 171.271C241.276 171.153 240.975 171.094 240.624 171.094C240.156 171.094 239.76 171.193 239.438 171.392C239.116 171.586 238.955 171.847 238.955 172.173C238.955 172.434 239.06 172.654 239.268 172.834C239.476 173.014 239.834 173.158 240.34 173.267L242.315 173.665C243.375 173.883 244.166 174.233 244.687 174.716C245.208 175.199 245.468 175.833 245.468 176.619C245.468 177.334 245.258 177.962 244.836 178.501C244.419 179.041 243.847 179.463 243.117 179.766C242.393 180.064 241.557 180.213 240.61 180.213C239.166 180.213 238.016 179.912 237.159 179.311C236.306 178.705 235.807 177.881 235.66 176.839L238.636 176.683C238.726 177.124 238.944 177.46 239.289 177.692C239.635 177.919 240.078 178.033 240.617 178.033C241.148 178.033 241.574 177.931 241.896 177.727C242.222 177.519 242.388 177.251 242.393 176.925C242.388 176.65 242.272 176.425 242.045 176.25C241.818 176.07 241.467 175.933 240.994 175.838L239.105 175.462C238.039 175.249 237.246 174.879 236.725 174.354C236.209 173.828 235.951 173.158 235.951 172.344C235.951 171.643 236.141 171.039 236.519 170.533C236.903 170.026 237.44 169.635 238.132 169.361C238.828 169.086 239.642 168.949 240.575 168.949C241.953 168.949 243.037 169.24 243.828 169.822C244.623 170.405 245.087 171.198 245.22 172.202ZM247.43 180V165.455H250.456V170.923H250.548C250.681 170.63 250.872 170.331 251.123 170.028C251.379 169.721 251.711 169.465 252.118 169.261C252.53 169.053 253.041 168.949 253.652 168.949C254.447 168.949 255.181 169.157 255.854 169.574C256.526 169.986 257.063 170.608 257.466 171.442C257.868 172.27 258.069 173.31 258.069 174.56C258.069 175.777 257.873 176.804 257.48 177.642C257.092 178.475 256.561 179.107 255.889 179.538C255.221 179.964 254.473 180.178 253.645 180.178C253.058 180.178 252.558 180.08 252.146 179.886C251.739 179.692 251.405 179.448 251.145 179.155C250.884 178.857 250.685 178.556 250.548 178.253H250.413V180H247.43ZM250.392 174.545C250.392 175.194 250.482 175.76 250.662 176.243C250.842 176.726 251.102 177.102 251.443 177.372C251.784 177.637 252.198 177.77 252.686 177.77C253.178 177.77 253.595 177.635 253.936 177.365C254.277 177.09 254.535 176.712 254.71 176.229C254.89 175.741 254.98 175.18 254.98 174.545C254.98 173.916 254.892 173.362 254.717 172.884C254.542 172.405 254.284 172.031 253.943 171.761C253.602 171.491 253.183 171.357 252.686 171.357C252.193 171.357 251.777 171.487 251.436 171.747C251.1 172.008 250.842 172.377 250.662 172.855C250.482 173.333 250.392 173.897 250.392 174.545ZM260.088 184.091V169.091H263.071V170.923H263.206C263.339 170.63 263.53 170.331 263.781 170.028C264.037 169.721 264.369 169.465 264.776 169.261C265.188 169.053 265.699 168.949 266.31 168.949C267.105 168.949 267.839 169.157 268.512 169.574C269.184 169.986 269.721 170.608 270.124 171.442C270.526 172.27 270.727 173.31 270.727 174.56C270.727 175.777 270.531 176.804 270.138 177.642C269.75 178.475 269.219 179.107 268.547 179.538C267.879 179.964 267.131 180.178 266.303 180.178C265.716 180.178 265.216 180.08 264.804 179.886C264.397 179.692 264.063 179.448 263.803 179.155C263.542 178.857 263.343 178.556 263.206 178.253H263.114V184.091H260.088ZM263.05 174.545C263.05 175.194 263.14 175.76 263.32 176.243C263.5 176.726 263.76 177.102 264.101 177.372C264.442 177.637 264.856 177.77 265.344 177.77C265.836 177.77 266.253 177.635 266.594 177.365C266.935 177.09 267.193 176.712 267.368 176.229C267.548 175.741 267.638 175.18 267.638 174.545C267.638 173.916 267.55 173.362 267.375 172.884C267.2 172.405 266.942 172.031 266.601 171.761C266.26 171.491 265.841 171.357 265.344 171.357C264.852 171.357 264.435 171.487 264.094 171.747C263.758 172.008 263.5 172.377 263.32 172.855C263.14 173.333 263.05 173.897 263.05 174.545Z" fill="black"/>
</svg>
